<svg width="92" height="92" viewBox="0 0 92 92" fill="none" xmlns="http://www.w3.org/2000/svg">
<rect width="92" height="92" fill="#FDF8F4"/>
<path d="M71.5172 49.2795H49.4828C47.5624 49.2795 46 50.8419 46 52.7624V54.9799C44.5121 53.8861 42.8691 53.0282 41.1324 52.4329C43.7085 50.5808 45.3896 47.5583 45.3896 44.1504C45.3896 38.5287 40.816 33.9551 35.1943 33.9551C29.5726 33.9551 24.999 38.5287 24.999 44.1504C24.999 47.554 26.6759 50.573 29.2465 52.4259C22.1304 54.8611 17 61.6158 17 69.5467V72.3009C17 73.2392 17.7608 74.0001 18.6992 74.0001H71.5172C73.4376 74.0001 75 72.4377 75 70.5173V52.7624C75 50.8419 73.4376 49.2795 71.5172 49.2795ZM35.1943 43.3479C36.9727 44.7719 39.2087 45.5697 41.5053 45.5697C41.6177 45.5697 41.7301 45.5671 41.8425 45.5633C41.1903 48.6351 38.4576 50.9472 35.1943 50.9472C31.931 50.9472 29.1984 48.6351 28.5462 45.5633C28.6586 45.567 28.7709 45.5697 28.8833 45.5697C31.18 45.5697 33.4159 44.7719 35.1943 43.3479ZM35.1943 37.3535C38.252 37.3535 40.8439 39.3834 41.695 42.1662C41.6318 42.168 41.5686 42.1714 41.5053 42.1714C39.6819 42.1714 37.9158 41.4132 36.66 40.0913C36.2679 39.6787 35.7183 39.5079 35.1946 39.5801C34.6707 39.5077 34.121 39.6785 33.7288 40.0913C32.4729 41.4132 30.7068 42.1714 28.8834 42.1714C28.8202 42.1714 28.757 42.168 28.6938 42.1662C29.5448 39.3833 32.1366 37.3535 35.1943 37.3535ZM20.3984 69.5467C20.3984 62.957 24.981 57.0125 31.3557 55.3362C36.5806 53.9622 42.2981 55.5622 46 59.5015V70.5174C46 70.5457 46.0015 70.5736 46.0022 70.6018H28.6679V65.0383C28.6679 64.0999 27.9071 63.3391 26.9686 63.3391C26.0302 63.3391 25.2694 64.0999 25.2694 65.0383V70.6016H20.3984C20.3984 70.6016 20.3984 69.5468 20.3984 69.5467ZM71.6016 70.5173C71.6016 70.5599 71.5598 70.6016 71.5172 70.6016H49.5117H49.4828C49.4402 70.6016 49.3984 70.5599 49.3984 70.5173V52.7624C49.3984 52.7198 49.4402 52.678 49.4828 52.678H71.5172C71.5598 52.678 71.6016 52.7198 71.6016 52.7624V70.5173Z" fill="#572091"/>
<path d="M60.5 56.542C57.6892 56.542 55.4023 58.8288 55.4023 61.6396C55.4023 64.4505 57.6892 66.7373 60.5 66.7373C63.3108 66.7373 65.5977 64.4504 65.5977 61.6396C65.5977 58.8288 63.3108 56.542 60.5 56.542ZM60.5 63.3389C59.5631 63.3389 58.8008 62.5766 58.8008 61.6396C58.8008 60.7027 59.5631 59.9404 60.5 59.9404C61.4369 59.9404 62.1992 60.7027 62.1992 61.6396C62.1992 62.5766 61.4369 63.3389 60.5 63.3389Z" fill="#FC38AD"/>
<path d="M63.1055 28.8899V25.7422C63.1055 24.8038 62.3447 24.043 61.4062 24.043C60.4678 24.043 59.707 24.8038 59.707 25.7422V29.5938C59.707 30.0445 59.886 30.4766 60.2048 30.7952L62.1306 32.721C62.4624 33.0529 62.8973 33.2188 63.332 33.2188C63.7668 33.2188 64.2018 33.0529 64.5335 32.721C65.197 32.0574 65.197 30.9816 64.5335 30.318L63.1055 28.8899Z" fill="#1CC9D1"/>
<path d="M47.8125 29.5938C47.8125 37.0893 53.9107 43.1875 61.4062 43.1875C68.9018 43.1875 75 37.0893 75 29.5938C75 22.0982 68.9018 16 61.4062 16C53.9107 16 47.8125 22.0982 47.8125 29.5938ZM63.1055 39.6468V39.4492C63.1055 38.5108 62.3447 37.75 61.4062 37.75C60.4678 37.75 59.707 38.5108 59.707 39.4492V39.6468C55.4441 38.9286 52.0715 35.5559 51.3533 31.293H51.5508C52.4892 31.293 53.25 30.5322 53.25 29.5938C53.25 28.6553 52.4892 27.8945 51.5508 27.8945H51.3533C52.0716 23.6316 55.4441 20.2591 59.707 19.5408V19.7383C59.707 20.6767 60.4678 21.4375 61.4062 21.4375C62.3447 21.4375 63.1055 20.6767 63.1055 19.7383V19.5408C67.3684 20.2593 70.7409 23.6316 71.4592 27.8945H71.2617C70.3233 27.8945 69.5625 28.6553 69.5625 29.5938C69.5625 30.5322 70.3233 31.293 71.2617 31.293H71.4592C70.741 35.5559 67.3684 38.9285 63.1055 39.6468Z" fill="#FC38AD"/>
</svg>
