<svg width="92" height="92" viewBox="0 0 92 92" fill="none" xmlns="http://www.w3.org/2000/svg">
<rect width="92" height="92" fill="#FDF8F4"/>
<path d="M22 50.0145V72H60V50.0145L41 31L22 50.0145Z" stroke="#FC38AD" stroke-width="4"/>
<path d="M35 72V59H46V72" stroke="#FC38AD" stroke-width="4"/>
<path d="M54.0458 27.6153L54.8377 27.6179C55.052 27.6186 55.3024 27.4255 55.3847 27.1962C55.4609 26.9837 55.5503 26.7721 55.6501 26.5674C55.7564 26.3496 55.7185 26.0373 55.5676 25.8854L55.0057 25.3198C54.6121 24.9236 54.6143 24.2809 55.0105 23.8873L55.9284 22.9754C56.1204 22.7847 56.3751 22.6802 56.6457 22.6811C56.9162 22.682 57.1702 22.7882 57.3609 22.9801L57.9228 23.5457C58.013 23.6365 58.1635 23.691 58.3253 23.6916C58.4265 23.6919 58.523 23.6715 58.604 23.6326C58.8095 23.534 59.0219 23.4459 59.2355 23.3708C59.4652 23.2901 59.6599 23.0409 59.6606 22.8267L59.6633 22.0347C59.6651 21.4763 60.121 21.0234 60.6795 21.0252L61.9737 21.0295C62.5323 21.0313 62.9851 21.4873 62.9833 22.0457L62.9807 22.8377C62.98 23.0519 63.173 23.3024 63.4022 23.3846C63.615 23.4609 63.8268 23.5502 64.0314 23.6499C64.1108 23.6886 64.2094 23.7101 64.3091 23.7105C64.4715 23.711 64.6228 23.6574 64.7139 23.567L65.2785 23.0062C65.4705 22.8155 65.7252 22.7111 65.9959 22.7119C66.2664 22.7128 66.5204 22.819 66.7111 23.0109L67.6239 23.9292C67.8147 24.121 67.9192 24.3757 67.9184 24.6463C67.9175 24.9168 67.8114 25.1708 67.6194 25.3615L67.0538 25.9234C66.9017 26.0745 66.8617 26.3868 66.9666 26.6053C67.0648 26.8104 67.1527 27.0224 67.2275 27.2355C67.3082 27.4653 67.5573 27.66 67.7716 27.6607L68.5634 27.6633C69.122 27.6652 69.5748 28.1211 69.5729 28.6796L69.5687 29.9738C69.5668 30.5322 69.111 30.9852 68.5524 30.9833L67.7606 30.9807C67.5463 30.98 67.2958 31.173 67.2136 31.4022C67.1375 31.6142 67.0482 31.8258 66.9483 32.0306C66.8421 32.2484 66.8801 32.5609 67.0313 32.7131L67.5932 33.2787C67.9868 33.6749 67.9847 34.3175 67.5885 34.7111L66.6692 35.6244C66.4773 35.8151 66.2226 35.9196 65.952 35.9187C65.6815 35.9178 65.4275 35.8116 65.2368 35.6197L64.6749 35.0541C64.5845 34.9631 64.4336 34.9085 64.2714 34.9079C64.1702 34.9076 64.074 34.9279 63.9932 34.9667C63.7878 35.0651 63.5758 35.153 63.3629 35.2278C63.1332 35.3085 62.9384 35.5577 62.9377 35.772L62.9351 36.564C62.9332 37.1224 62.4774 37.5753 61.9189 37.5735L60.6246 37.5692C60.0661 37.5673 59.6133 37.1114 59.6151 36.553L59.6178 35.7611C59.6185 35.5467 59.4254 35.2963 59.1962 35.2142C58.9834 35.1378 58.7716 35.0485 58.567 34.9489C58.4876 34.9101 58.389 34.8886 58.2892 34.8883C58.1268 34.8877 57.9756 34.9414 57.8846 35.0318L57.319 35.5936C57.1271 35.7843 56.8725 35.8888 56.602 35.8879C56.3313 35.887 56.0773 35.7807 55.8866 35.5887L54.9743 34.6698C54.5809 34.2735 54.5831 33.6309 54.9791 33.2372L55.5442 32.6756C55.6962 32.5247 55.7361 32.2124 55.6314 31.9938C55.533 31.7886 55.4453 31.5764 55.3704 31.3633C55.2897 31.1335 55.0406 30.9389 54.8263 30.9382L54.0345 30.9356C53.476 30.9337 53.0231 30.4778 53.025 29.9193L53.0293 28.6251C53.0315 28.0663 53.4874 27.6134 54.0458 27.6153ZM58.331 29.2895C58.3256 30.9262 59.6528 32.2622 61.2895 32.2676C62.9262 32.273 64.2622 30.9458 64.2676 29.3091C64.273 27.6724 62.9458 26.3364 61.3091 26.331C59.6724 26.3256 58.3364 27.6527 58.331 29.2895Z" fill="#572091"/>
</svg>
