<svg width="92" height="92" viewBox="0 0 92 92" fill="none" xmlns="http://www.w3.org/2000/svg">
<rect width="92" height="92" fill="#FDF8F4"/>
<g clip-path="url(#clip0_156_100)">
<path d="M45.6569 20H39.1168V24.0876H43.613V31.7858C43.613 38.5474 38.1118 44.0486 31.3503 44.0486C24.5887 44.0486 19.0876 38.5475 19.0876 31.7859V24.0876H23.4477V20H17.0438C15.9149 20 15 20.9149 15 22.0438V31.7859C15 40.8018 22.3345 48.1363 31.3504 48.1363C40.3663 48.1363 47.7007 40.8018 47.7007 31.7859V22.0438C47.7007 20.9149 46.7858 20 45.6569 20Z" fill="#572091"/>
<path d="M53.5105 50.0196V59.6936C53.5105 65.3284 48.9262 69.9127 43.2914 69.9127C37.6567 69.9127 33.0724 65.3284 33.0724 59.6936V46.3408H28.9849V59.6936C28.9849 67.582 35.4023 74.0002 43.2914 74.0002C51.1798 74.0002 57.598 67.582 57.598 59.6936V50.0196H53.5105Z" fill="#572091"/>
<path d="M55.5549 36.8027C51.3842 36.8027 47.9922 40.1948 47.9922 44.3648C47.9922 48.5342 51.3842 51.9269 55.5543 51.9269C59.7243 51.9269 63.1163 48.5342 63.117 44.3648C63.1169 40.1948 59.7243 36.8027 55.5549 36.8027ZM55.5543 47.8393C53.6379 47.8393 52.0791 46.2806 52.0791 44.3649C52.0791 42.4492 53.6378 40.8905 55.5543 40.8905C57.47 40.8905 59.0287 42.4492 59.0287 44.3649C59.0287 46.2806 57.47 47.8393 55.5543 47.8393Z" fill="#FC38AD"/>
<path d="M23.2625 18C22.1337 18 21.2188 18.9149 21.2188 20.0438V24.4039C21.2188 25.5328 22.1337 26.4477 23.2625 26.4477C24.3914 26.4477 25.3063 25.5328 25.3063 24.4039V20.0438C25.3063 18.9149 24.3914 18 23.2625 18Z" fill="#1CC9D1"/>
<path d="M39.0677 18C37.9388 18 37.0239 18.9149 37.0239 20.0438V24.4039C37.0239 25.5328 37.9388 26.4477 39.0677 26.4477C40.1966 26.4477 41.1115 25.5328 41.1115 24.4039V20.0438C41.1115 18.9149 40.1966 18 39.0677 18Z" fill="#1CC9D1"/>
</g>
<path d="M74 20L74 34" stroke="#FC38AD" stroke-width="5"/>
<path d="M67 27L81 27" stroke="#FC38AD" stroke-width="5"/>
<defs>
<clipPath id="clip0_156_100">
<rect width="56" height="56" fill="white" transform="translate(11 18)"/>
</clipPath>
</defs>
</svg>
