<svg width="92" height="92" viewBox="0 0 92 92" fill="none" xmlns="http://www.w3.org/2000/svg">
<rect width="92" height="92" fill="#FDF8F4"/>
<g clip-path="url(#clip0_156_142)">
<path d="M49.4516 43.2997H60.5254V35.9172H67.9079V24.8434H60.5254V17.4609H49.4516V24.8434H42.0691V35.9172H49.4516V43.2997ZM45.7603 32.226V28.5347H53.1429V21.1522H56.8341V28.5347H64.2166V32.226H56.8341V39.6085H53.1429V32.226H45.7603Z" fill="#1CC9D1"/>
<path d="M77.3618 52.0793C76.6558 50.6761 75.4409 49.6298 73.941 49.1332C72.4395 48.6358 70.8401 48.7517 69.4362 49.4594L58.9972 54.7307C58.1526 52.5048 56.0001 50.918 53.4832 50.918H46.4522C43.6457 48.2577 39.7053 46.7468 35.5075 46.7468C32.8595 46.7468 29.9273 47.8183 26.8258 49.0302V46.5674H15V75.5386H26.8259V69.766L51.4929 74.4085L74.8361 59.9674C76.2038 59.2527 77.2204 58.0503 77.7036 56.5722C78.195 55.0692 78.0717 53.4703 77.3618 52.0793ZM23.1347 71.8472H18.6913V50.2585H23.1347V71.8472ZM74.1951 55.4252C74.0102 55.9907 73.6201 56.4474 73.0965 56.7112L73.0247 56.7474L50.7685 70.5161L26.8259 66.0099V52.9948C27.0172 52.9199 27.2089 52.8449 27.3979 52.7707C30.5853 51.519 33.338 50.438 35.5075 50.438C38.986 50.438 42.2048 51.7454 44.338 54.0248L44.885 54.6093H53.4831C54.699 54.6093 55.6882 55.6004 55.6882 56.8185C55.6882 58.0451 54.699 59.043 53.4831 59.043H37.5255V62.7342H53.4832C56.0217 62.7342 58.1905 61.1165 59.0196 58.8546L71.099 52.7549C71.6197 52.4925 72.217 52.4506 72.7804 52.6373C73.3452 52.8243 73.8011 53.2153 74.0692 53.748C74.3342 54.2672 74.3789 54.8626 74.1951 55.4252Z" fill="#572091"/>
</g>
<defs>
<clipPath id="clip0_156_142">
<rect width="63" height="63" fill="white" transform="translate(15 15)"/>
</clipPath>
</defs>
</svg>
